<svg width="430" height="430" viewBox="0 0 430 430" fill="none" xmlns="http://www.w3.org/2000/svg">
<path d="M295.5 87C283.9 87 274.5 77.6 274.5 66C274.5 54.4 283.9 45 295.5 45C307.1 45 316.5 54.4 316.5 66C316.5 77.6 307.1 87 295.5 87Z" fill="#08A88A"/>
<path d="M59 249.3C47.4 249.3 38 239.9 38 228.3C38 216.7 47.4 207.3 59 207.3C70.6 207.3 80 216.7 80 228.3C80 239.9 70.6 249.3 59 249.3Z" fill="#08A88A"/>
<path d="M317.7 373.8C306.1 373.8 296.7 364.4 296.7 352.8C296.7 341.2 306.1 331.8 317.7 331.8C329.3 331.8 338.7 341.2 338.7 352.8C338.7 364.4 329.3 373.8 317.7 373.8Z" fill="#08A88A"/>
<path d="M301.6 137.8C291.9 137.8 284.1 130 284.1 120.3C284.1 110.6 291.9 102.8 301.6 102.8C311.3 102.8 319.1 110.6 319.1 120.3C319.1 130 311.2 137.8 301.6 137.8Z" fill="#121331"/>
<path d="M296.2 180.1C288.2 180.1 281.7 173.6 281.7 165.6C281.7 157.6 288.2 151.1 296.2 151.1C304.2 151.1 310.7 157.6 310.7 165.6C310.7 173.6 304.2 180.1 296.2 180.1Z" fill="#121331"/>
<path d="M346.9 143.5C337.2 143.5 329.4 135.7 329.4 126C329.4 116.3 337.2 108.5 346.9 108.5C356.6 108.5 364.4 116.3 364.4 126C364.4 135.7 356.5 143.5 346.9 143.5Z" fill="#121331"/>
<path d="M103.3 214.9C93.5998 214.9 85.7998 207.1 85.7998 197.4C85.7998 187.7 93.5998 179.9 103.3 179.9C113 179.9 120.8 187.7 120.8 197.4C120.8 207.1 113 214.9 103.3 214.9Z" fill="#121331"/>
<path d="M86.1001 172.7C76.4001 172.7 68.6001 164.9 68.6001 155.2C68.6001 145.5 76.4001 137.7 86.1001 137.7C95.8001 137.7 103.6 145.5 103.6 155.2C103.6 164.9 95.8001 172.7 86.1001 172.7Z" fill="#121331"/>
<path d="M269 348.1C259.3 348.1 251.5 340.3 251.5 330.6C251.5 320.9 259.3 313.1 269 313.1C278.7 313.1 286.5 320.9 286.5 330.6C286.5 340.3 278.7 348.1 269 348.1Z" fill="#121331"/>
<path d="M241.9 384C232.2 384 224.4 376.2 224.4 366.5C224.4 356.8 232.2 349 241.9 349C251.6 349 259.4 356.8 259.4 366.5C259.4 376.2 251.5 384 241.9 384Z" fill="#121331"/>
<path d="M341.5 186.1C333.5 186.1 327 179.6 327 171.6C327 163.6 333.5 157.1 341.5 157.1C349.5 157.1 356 163.6 356 171.6C356 179.6 349.5 186.1 341.5 186.1Z" fill="#121331"/>
<path d="M378.1 200.2C370.1 200.2 363.6 193.7 363.6 185.7C363.6 177.7 370.1 171.2 378.1 171.2C386.1 171.2 392.6 177.7 392.6 185.7C392.6 193.7 386.1 200.2 378.1 200.2Z" fill="#121331"/>
<path d="M144.9 193.8C136.9 193.8 130.4 187.3 130.4 179.3C130.4 171.3 136.9 164.8 144.9 164.8C152.9 164.8 159.4 171.3 159.4 179.3C159.4 187.3 152.9 193.8 144.9 193.8Z" fill="#121331"/>
<path d="M128.5 151.7C120.5 151.7 114 145.2 114 137.2C114 129.2 120.5 122.7 128.5 122.7C136.5 122.7 143 129.2 143 137.2C143 145.2 136.5 151.7 128.5 151.7Z" fill="#121331"/>
<path d="M121.4 113.3C113.4 113.3 106.9 106.8 106.9 98.8C106.9 90.8 113.4 84.3 121.4 84.3C129.4 84.3 135.9 90.8 135.9 98.8C135.9 106.8 129.4 113.3 121.4 113.3Z" fill="#121331"/>
<path d="M232.8 317.3C224.8 317.3 218.3 310.8 218.3 302.8C218.3 294.8 224.8 288.3 232.8 288.3C240.8 288.3 247.3 294.8 247.3 302.8C247.3 310.8 240.8 317.3 232.8 317.3Z" fill="#121331"/>
<path d="M204.6 353.1C196.6 353.1 190.1 346.6 190.1 338.6C190.1 330.6 196.6 324.1 204.6 324.1C212.6 324.1 219.1 330.6 219.1 338.6C219.1 346.6 212.6 353.1 204.6 353.1Z" fill="#121331"/>
<path d="M174.1 378C166.1 378 159.6 371.5 159.6 363.5C159.6 355.5 166.1 349 174.1 349C182.1 349 188.6 355.5 188.6 363.5C188.6 371.5 182.1 378 174.1 378Z" fill="#121331"/>
<path d="M149.2 346.7C142 346.7 136.2 340.9 136.2 333.7C136.2 326.5 142 320.7 149.2 320.7C156.4 320.7 162.2 326.5 162.2 333.7C162.2 340.9 156.4 346.7 149.2 346.7Z" fill="#121331"/>
<path d="M327.8 221.5C320.6 221.5 314.8 215.7 314.8 208.5C314.8 201.3 320.6 195.5 327.8 195.5C335 195.5 340.8 201.3 340.8 208.5C340.8 215.7 334.9 221.5 327.8 221.5Z" fill="#121331"/>
<path d="M364.3 235.6C357.1 235.6 351.3 229.8 351.3 222.6C351.3 215.4 357.1 209.6 364.3 209.6C371.5 209.6 377.3 215.4 377.3 222.6C377.3 229.8 371.5 235.6 364.3 235.6Z" fill="#121331"/>
<path d="M184.2 185.9C177 185.9 171.2 180.1 171.2 172.9C171.2 165.7 177 159.9 184.2 159.9C191.4 159.9 197.2 165.7 197.2 172.9C197.2 180.1 191.3 185.9 184.2 185.9Z" fill="#121331"/>
<path d="M166 143C158.8 143 153 137.2 153 130C153 122.8 158.8 117 166 117C173.2 117 179 122.8 179 130C179 137.2 173.2 143 166 143Z" fill="#121331"/>
<path d="M160 105.1C152.8 105.1 147 99.3 147 92.1C147 84.9 152.8 79.1 160 79.1C167.2 79.1 173 84.9 173 92.1C173 99.3 167.2 105.1 160 105.1Z" fill="#121331"/>
<path d="M310.3 247C304.2 247 299.3 242.1 299.3 236C299.3 229.9 304.2 225 310.3 225C316.4 225 321.3 229.9 321.3 236C321.3 242.1 316.4 247 310.3 247Z" fill="#121331"/>
<path d="M346.9 261.4C340.8 261.4 335.9 256.5 335.9 250.4C335.9 244.3 340.8 239.4 346.9 239.4C353 239.4 357.9 244.3 357.9 250.4C357.9 256.5 352.9 261.4 346.9 261.4Z" fill="#121331"/>
<path d="M217 185.5C210.9 185.5 206 180.6 206 174.5C206 168.4 210.9 163.5 217 163.5C223.1 163.5 228 168.4 228 174.5C228 180.6 223.1 185.5 217 185.5Z" fill="#121331"/>
<path d="M227.1 149.2C221.9 149.2 217.6 144.9 217.6 139.7C217.6 134.5 221.8 130.2 227.1 130.2C232.3 130.2 236.6 134.5 236.6 139.7C236.6 144.9 232.3 149.2 227.1 149.2Z" fill="#121331"/>
<path d="M221.1 111C215.9 111 211.6 106.7 211.6 101.5C211.6 96.3 215.8 92 221.1 92C226.3 92 230.6 96.3 230.6 101.5C230.6 106.7 226.3 111 221.1 111Z" fill="#121331"/>
<path d="M290.2 265.5C285 265.5 280.7 261.2 280.7 256C280.7 250.8 284.9 246.5 290.2 246.5C295.4 246.5 299.7 250.8 299.7 256C299.7 261.2 295.4 265.5 290.2 265.5Z" fill="#121331"/>
<path d="M325.8 279.7C320.6 279.7 316.3 275.4 316.3 270.2C316.3 265 320.5 260.7 325.8 260.7C331 260.7 335.3 265 335.3 270.2C335.3 275.4 331.1 279.7 325.8 279.7Z" fill="#121331"/>
<path d="M127.1 285.8C121.9 285.8 117.6 281.5 117.6 276.3C117.6 271.1 121.8 266.8 127.1 266.8C132.3 266.8 136.6 271.1 136.6 276.3C136.6 281.5 132.4 285.8 127.1 285.8Z" fill="#121331"/>
<path d="M157.3 262C152.1 262 147.8 257.7 147.8 252.5C147.8 247.3 152 243 157.3 243C162.5 243 166.8 247.3 166.8 252.5C166.8 257.7 162.6 262 157.3 262Z" fill="#121331"/>
<path d="M244.9 258.9C239.7 258.9 235.4 254.6 235.4 249.4C235.4 244.2 239.6 239.9 244.9 239.9C250.1 239.9 254.4 244.2 254.4 249.4C254.4 254.6 250.1 258.9 244.9 258.9Z" fill="#121331"/>
<path d="M185.8 225.2C180.6 225.2 176.3 220.9 176.3 215.7C176.3 210.5 180.5 206.2 185.8 206.2C191 206.2 195.3 210.5 195.3 215.7C195.3 220.9 191.1 225.2 185.8 225.2Z" fill="#121331"/>
<path d="M243.9 191.8C238.7 191.8 234.4 187.5 234.4 182.3C234.4 177.1 238.6 172.8 243.9 172.8C249.1 172.8 253.4 177.1 253.4 182.3C253.4 187.5 249.1 191.8 243.9 191.8Z" fill="#121331"/>
<path d="M241.9 121.3C237.5 121.3 233.9 117.7 233.9 113.3C233.9 108.9 237.5 105.3 241.9 105.3C246.3 105.3 249.9 108.9 249.9 113.3C249.9 117.7 246.3 121.3 241.9 121.3Z" fill="#121331"/>
<path d="M248.2 159.6C243.8 159.6 240.2 156 240.2 151.6C240.2 147.2 243.8 143.6 248.2 143.6C252.6 143.6 256.2 147.2 256.2 151.6C256.2 156 252.7 159.6 248.2 159.6Z" fill="#121331"/>
<path d="M268.7 276.2C264.3 276.2 260.7 272.6 260.7 268.2C260.7 263.8 264.3 260.2 268.7 260.2C273.1 260.2 276.7 263.8 276.7 268.2C276.7 272.6 273.1 276.2 268.7 276.2Z" fill="#121331"/>
<path d="M305.9 289.9C301.5 289.9 297.9 286.3 297.9 281.9C297.9 277.5 301.5 273.9 305.9 273.9C310.3 273.9 313.9 277.5 313.9 281.9C313.9 286.3 310.4 289.9 305.9 289.9Z" fill="#121331"/>
<path d="M156.6 236.3C152.2 236.3 148.6 232.7 148.6 228.3C148.6 223.9 152.2 220.3 156.6 220.3C161 220.3 164.6 223.9 164.6 228.3C164.6 232.7 161.1 236.3 156.6 236.3Z" fill="#121331"/>
<path d="M126.4 260.5C122 260.5 118.4 256.9 118.4 252.5C118.4 248.1 122 244.5 126.4 244.5C130.8 244.5 134.4 248.1 134.4 252.5C134.4 256.9 130.9 260.5 126.4 260.5Z" fill="#121331"/>
<path d="M256.7 134C252.8 134 249.7 130.9 249.7 127C249.7 123.1 252.8 120 256.7 120C260.6 120 263.7 123.1 263.7 127C263.7 130.9 260.5 134 256.7 134Z" fill="#121331"/>
<path d="M286.1 295.4C282.2 295.4 279.1 292.3 279.1 288.4C279.1 284.5 282.2 281.4 286.1 281.4C290 281.4 293.1 284.5 293.1 288.4C293.1 292.3 290 295.4 286.1 295.4Z" fill="#121331"/>
<path d="M131.1 239.7C127.2 239.7 124.1 236.6 124.1 232.7C124.1 228.8 127.2 225.7 131.1 225.7C135 225.7 138.1 228.8 138.1 232.7C138.1 236.6 135 239.7 131.1 239.7Z" fill="#121331"/>
<path d="M199.9 143.1C193.8 143.1 188.9 138.2 188.9 132.1C188.9 126 193.8 121.1 199.9 121.1C206 121.1 210.9 126 210.9 132.1C210.9 138.2 206 143.1 199.9 143.1Z" fill="#121331"/>
<path d="M193.9 104.9C187.8 104.9 182.9 100 182.9 93.9C182.9 87.8 187.8 82.9 193.9 82.9C200 82.9 204.9 87.8 204.9 93.9C204.9 100 200 104.9 193.9 104.9Z" fill="#121331"/>
<path d="M164.4 290.6C158.3 290.6 153.4 285.7 153.4 279.6C153.4 273.5 158.3 268.6 164.4 268.6C170.5 268.6 175.4 273.5 175.4 279.6C175.4 285.7 170.4 290.6 164.4 290.6Z" fill="#121331"/>
<path d="M192.5 255.1C186.4 255.1 181.5 250.2 181.5 244.1C181.5 238 186.4 233.1 192.5 233.1C198.6 233.1 203.5 238 203.5 244.1C203.5 250.2 198.6 255.1 192.5 255.1Z" fill="#121331"/>
<path d="M264.7 241.3C258.6 241.3 253.7 236.4 253.7 230.3C253.7 224.2 258.6 219.3 264.7 219.3C270.8 219.3 275.7 224.2 275.7 230.3C275.7 236.4 270.8 241.3 264.7 241.3Z" fill="#121331"/>
<path d="M282.8 215.3C275.6 215.3 269.8 209.5 269.8 202.3C269.8 195.1 275.6 189.3 282.8 189.3C290 189.3 295.8 195.1 295.8 202.3C295.8 209.5 290 215.3 282.8 215.3Z" fill="#121331"/>
<path d="M179.1 321.5C171.9 321.5 166.1 315.7 166.1 308.5C166.1 301.3 171.9 295.5 179.1 295.5C186.3 295.5 192.1 301.3 192.1 308.5C192.1 315.7 186.3 321.5 179.1 321.5Z" fill="#121331"/>
<path d="M207 286.3C199.8 286.3 194 280.5 194 273.3C194 266.1 199.8 260.3 207 260.3C214.2 260.3 220 266.1 220 273.3C220 280.5 214.1 286.3 207 286.3Z" fill="#121331"/>
<path d="M133.8 314.5C127.7 314.5 122.8 309.6 122.8 303.5C122.8 297.4 127.7 292.5 133.8 292.5C139.9 292.5 144.8 297.4 144.8 303.5C144.8 309.6 139.8 314.5 133.8 314.5Z" fill="#121331"/>
</svg>
